<svg xmlns="http://www.w3.org/2000/svg" xmlns:xlink="http://www.w3.org/1999/xlink" width="500" zoomAndPan="magnify" viewBox="0 0 375 374.999991" height="500" preserveAspectRatio="xMidYMid meet" version="1.0"><defs><g/><clipPath id="4d9104916a"><path d="M 112.5 117.050781 L 262.5 117.050781 L 262.5 267.050781 L 112.5 267.050781 Z M 112.5 117.050781 " clip-rule="nonzero"/></clipPath></defs><g fill="#daa545" fill-opacity="1"><g transform="translate(130.606557, 120.559082)"><g><path d="M 9.921875 -6 L 9.375 -6.890625 L 9.65625 -7.046875 C 9.90625 -7.203125 10.125 -7.359375 10.3125 -7.515625 C 10.5 -7.679688 10.640625 -7.863281 10.734375 -8.0625 C 10.828125 -8.269531 10.859375 -8.503906 10.828125 -8.765625 C 10.804688 -9.035156 10.695312 -9.335938 10.5 -9.671875 L 7.46875 -14.6875 L 0.5 -10.46875 L 3.53125 -5.453125 C 3.726562 -5.117188 3.9375 -4.878906 4.15625 -4.734375 C 4.375 -4.585938 4.59375 -4.503906 4.8125 -4.484375 C 5.03125 -4.472656 5.257812 -4.515625 5.5 -4.609375 C 5.738281 -4.710938 5.972656 -4.832031 6.203125 -4.96875 L 6.5 -5.140625 L 7.046875 -4.25 L 0.8125 -0.5 L 0.265625 -1.390625 L 0.53125 -1.546875 C 0.78125 -1.691406 1 -1.847656 1.1875 -2.015625 C 1.382812 -2.179688 1.53125 -2.363281 1.625 -2.5625 C 1.71875 -2.769531 1.75 -3.003906 1.71875 -3.265625 C 1.6875 -3.523438 1.570312 -3.820312 1.375 -4.15625 L -4.953125 -14.640625 C -5.148438 -14.960938 -5.351562 -15.191406 -5.5625 -15.328125 C -5.769531 -15.460938 -5.984375 -15.53125 -6.203125 -15.53125 C -6.429688 -15.53125 -6.660156 -15.484375 -6.890625 -15.390625 C -7.128906 -15.296875 -7.367188 -15.175781 -7.609375 -15.03125 L -7.875 -14.875 L -8.40625 -15.78125 L -2.171875 -19.53125 L -1.640625 -18.625 L -1.9375 -18.453125 C -2.164062 -18.316406 -2.375 -18.160156 -2.5625 -17.984375 C -2.757812 -17.816406 -2.90625 -17.632812 -3 -17.4375 C -3.09375 -17.238281 -3.125 -17.007812 -3.09375 -16.75 C -3.070312 -16.488281 -2.957031 -16.191406 -2.75 -15.859375 L -0.140625 -11.53125 L 6.828125 -15.75 L 4.21875 -20.078125 C 4.007812 -20.410156 3.796875 -20.644531 3.578125 -20.78125 C 3.359375 -20.925781 3.140625 -21.003906 2.921875 -21.015625 C 2.703125 -21.023438 2.472656 -20.984375 2.234375 -20.890625 C 2.003906 -20.804688 1.765625 -20.6875 1.515625 -20.53125 L 1.234375 -20.375 L 0.703125 -21.28125 L 6.9375 -25.03125 L 7.46875 -24.125 L 7.203125 -23.96875 C 6.953125 -23.820312 6.734375 -23.664062 6.546875 -23.5 C 6.367188 -23.332031 6.226562 -23.148438 6.125 -22.953125 C 6.03125 -22.753906 5.992188 -22.523438 6.015625 -22.265625 C 6.046875 -22.003906 6.164062 -21.707031 6.375 -21.375 L 12.71875 -10.859375 C 12.90625 -10.546875 13.101562 -10.320312 13.3125 -10.1875 C 13.519531 -10.050781 13.734375 -9.976562 13.953125 -9.96875 C 14.179688 -9.96875 14.410156 -10.015625 14.640625 -10.109375 C 14.867188 -10.210938 15.101562 -10.335938 15.34375 -10.484375 L 15.609375 -10.640625 L 16.15625 -9.75 Z M 9.921875 -6 "/></g></g></g><g fill="#daa545" fill-opacity="1"><g transform="translate(146.303657, 111.040278)"><g><path d="M 2.625 -7.375 L 2.671875 -4.578125 C 2.660156 -4.367188 2.671875 -4.164062 2.703125 -3.96875 C 2.734375 -3.78125 2.773438 -3.617188 2.828125 -3.484375 C 2.972656 -3.085938 3.207031 -2.847656 3.53125 -2.765625 C 3.851562 -2.679688 4.273438 -2.738281 4.796875 -2.9375 L 5.34375 -3.140625 L 5.71875 -2.15625 L 0 0 L -0.375 -0.984375 L 0.0625 -1.15625 C 0.300781 -1.238281 0.488281 -1.332031 0.625 -1.4375 C 0.769531 -1.550781 0.878906 -1.695312 0.953125 -1.875 C 1.035156 -2.0625 1.09375 -2.296875 1.125 -2.578125 C 1.15625 -2.867188 1.164062 -3.222656 1.15625 -3.640625 L 1.140625 -19.484375 L 2.96875 -20.171875 L 13.703125 -7.6875 C 13.878906 -7.476562 14.046875 -7.3125 14.203125 -7.1875 C 14.367188 -7.070312 14.53125 -6.988281 14.6875 -6.9375 C 14.851562 -6.882812 15.023438 -6.867188 15.203125 -6.890625 C 15.390625 -6.921875 15.59375 -6.976562 15.8125 -7.0625 L 16.125 -7.1875 L 16.5 -6.203125 L 10.0625 -3.78125 L 9.6875 -4.765625 L 10.234375 -4.96875 C 11.171875 -5.320312 11.5 -5.875 11.21875 -6.625 C 11.175781 -6.75 11.109375 -6.867188 11.015625 -6.984375 C 10.929688 -7.109375 10.828125 -7.25 10.703125 -7.40625 L 8.78125 -9.6875 Z M 4.9375 -14.25 C 4.425781 -14.84375 3.953125 -15.40625 3.515625 -15.9375 C 3.085938 -16.46875 2.707031 -16.988281 2.375 -17.5 C 2.414062 -17.1875 2.453125 -16.890625 2.484375 -16.609375 C 2.515625 -16.335938 2.535156 -16.039062 2.546875 -15.71875 C 2.566406 -15.40625 2.582031 -15.082031 2.59375 -14.75 C 2.601562 -14.414062 2.609375 -14.039062 2.609375 -13.625 L 2.625 -8.71875 L 7.90625 -10.703125 Z M 4.9375 -14.25 "/></g></g></g><g fill="#daa545" fill-opacity="1"><g transform="translate(161.530006, 105.254185)"><g><path d="M 13.03125 -5.640625 C 13.5625 -5.066406 14.050781 -4.65625 14.5 -4.40625 C 14.957031 -4.15625 15.445312 -4.082031 15.96875 -4.1875 L 16.03125 -4.203125 L 16.234375 -3.171875 L 15.90625 -3.09375 C 15.132812 -2.945312 14.5 -2.851562 14 -2.8125 C 13.5 -2.78125 13.054688 -2.804688 12.671875 -2.890625 C 12.296875 -2.984375 11.957031 -3.148438 11.65625 -3.390625 C 11.363281 -3.628906 11.03125 -3.953125 10.65625 -4.359375 L 6.28125 -9.25 L 4.234375 -8.859375 L 5.21875 -3.796875 C 5.28125 -3.429688 5.390625 -3.148438 5.546875 -2.953125 C 5.703125 -2.753906 5.878906 -2.613281 6.078125 -2.53125 C 6.285156 -2.457031 6.515625 -2.425781 6.765625 -2.4375 C 7.015625 -2.457031 7.273438 -2.492188 7.546875 -2.546875 L 7.875 -2.609375 L 8.078125 -1.578125 L 0.9375 -0.1875 L 0.734375 -1.21875 L 1.046875 -1.28125 C 1.316406 -1.332031 1.566406 -1.398438 1.796875 -1.484375 C 2.035156 -1.566406 2.234375 -1.679688 2.390625 -1.828125 C 2.554688 -1.972656 2.671875 -2.164062 2.734375 -2.40625 C 2.804688 -2.644531 2.8125 -2.945312 2.75 -3.3125 L 0.375 -15.453125 C 0.300781 -15.816406 0.1875 -16.097656 0.03125 -16.296875 C -0.125 -16.503906 -0.300781 -16.644531 -0.5 -16.71875 C -0.707031 -16.800781 -0.9375 -16.835938 -1.1875 -16.828125 C -1.4375 -16.816406 -1.695312 -16.785156 -1.96875 -16.734375 L -2.28125 -16.671875 L -2.484375 -17.703125 L 4.109375 -18.984375 C 6.234375 -19.398438 7.890625 -19.316406 9.078125 -18.734375 C 10.273438 -18.148438 11.023438 -17.070312 11.328125 -15.5 C 11.460938 -14.84375 11.472656 -14.242188 11.359375 -13.703125 C 11.242188 -13.171875 11.050781 -12.691406 10.78125 -12.265625 C 10.507812 -11.835938 10.179688 -11.460938 9.796875 -11.140625 C 9.410156 -10.816406 9.015625 -10.539062 8.609375 -10.3125 Z M 4 -10 L 5.734375 -10.328125 C 6.453125 -10.472656 7.035156 -10.671875 7.484375 -10.921875 C 7.929688 -11.179688 8.265625 -11.5 8.484375 -11.875 C 8.710938 -12.25 8.835938 -12.6875 8.859375 -13.1875 C 8.890625 -13.6875 8.84375 -14.257812 8.71875 -14.90625 C 8.59375 -15.550781 8.421875 -16.09375 8.203125 -16.53125 C 7.984375 -16.96875 7.691406 -17.300781 7.328125 -17.53125 C 6.960938 -17.757812 6.523438 -17.890625 6.015625 -17.921875 C 5.515625 -17.960938 4.914062 -17.914062 4.21875 -17.78125 L 2.546875 -17.46875 Z M 4 -10 "/></g></g></g><g fill="#daa545" fill-opacity="1"><g transform="translate(176.046281, 101.920758)"><g><path d="M 15.84375 0.046875 L 15.84375 -1 L 15.9375 -1 C 16.195312 -1 16.4375 -1.015625 16.65625 -1.046875 C 16.875 -1.085938 17.054688 -1.160156 17.203125 -1.265625 C 17.359375 -1.378906 17.476562 -1.539062 17.5625 -1.75 C 17.65625 -1.957031 17.707031 -2.234375 17.71875 -2.578125 L 17.765625 -15.9375 L 12 0.03125 L 10.640625 0.03125 L 4.890625 -15.921875 L 4.859375 -2.828125 C 4.847656 -2.441406 4.882812 -2.128906 4.96875 -1.890625 C 5.050781 -1.648438 5.171875 -1.46875 5.328125 -1.34375 C 5.484375 -1.21875 5.671875 -1.132812 5.890625 -1.09375 C 6.117188 -1.050781 6.375 -1.03125 6.65625 -1.03125 L 6.71875 -1.03125 L 6.71875 0.015625 L 0.953125 0 L 0.953125 -1.046875 L 1.265625 -1.046875 C 1.546875 -1.046875 1.804688 -1.0625 2.046875 -1.09375 C 2.296875 -1.132812 2.515625 -1.207031 2.703125 -1.3125 C 2.890625 -1.425781 3.039062 -1.59375 3.15625 -1.8125 C 3.269531 -2.039062 3.328125 -2.335938 3.328125 -2.703125 L 3.375 -15.078125 C 3.375 -15.453125 3.316406 -15.75 3.203125 -15.96875 C 3.085938 -16.195312 2.9375 -16.375 2.75 -16.5 C 2.5625 -16.625 2.34375 -16.703125 2.09375 -16.734375 C 1.851562 -16.773438 1.59375 -16.796875 1.3125 -16.796875 L 1 -16.796875 L 1 -17.84375 L 6.703125 -17.828125 L 11.84375 -3.515625 L 17 -17.796875 L 22.546875 -17.78125 L 22.546875 -16.734375 L 22.234375 -16.734375 C 21.941406 -16.734375 21.671875 -16.710938 21.421875 -16.671875 C 21.179688 -16.628906 20.96875 -16.546875 20.78125 -16.421875 C 20.59375 -16.296875 20.441406 -16.113281 20.328125 -15.875 C 20.222656 -15.644531 20.171875 -15.332031 20.171875 -14.9375 L 20.140625 -2.78125 C 20.128906 -2.394531 20.175781 -2.082031 20.28125 -1.84375 C 20.394531 -1.601562 20.546875 -1.421875 20.734375 -1.296875 C 20.921875 -1.171875 21.132812 -1.085938 21.375 -1.046875 C 21.625 -1.003906 21.894531 -0.984375 22.1875 -0.984375 L 22.5 -0.984375 L 22.5 0.0625 Z M 15.84375 0.046875 "/></g></g></g><g fill="#daa545" fill-opacity="1"><g transform="translate(197.851902, 102.065561)"><g><path d="M 18.609375 -5.21875 C 18.316406 -3.863281 17.882812 -2.664062 17.3125 -1.625 C 16.75 -0.582031 16.054688 0.257812 15.234375 0.90625 C 14.410156 1.550781 13.476562 1.988281 12.4375 2.21875 C 11.394531 2.445312 10.257812 2.429688 9.03125 2.171875 C 7.726562 1.898438 6.640625 1.441406 5.765625 0.796875 C 4.890625 0.160156 4.21875 -0.613281 3.75 -1.53125 C 3.28125 -2.445312 3.003906 -3.492188 2.921875 -4.671875 C 2.835938 -5.847656 2.941406 -7.117188 3.234375 -8.484375 C 3.523438 -9.835938 3.941406 -11.03125 4.484375 -12.0625 C 5.035156 -13.09375 5.710938 -13.9375 6.515625 -14.59375 C 7.316406 -15.25 8.25 -15.679688 9.3125 -15.890625 C 10.382812 -16.109375 11.566406 -16.082031 12.859375 -15.8125 C 14.085938 -15.539062 15.128906 -15.09375 15.984375 -14.46875 C 16.835938 -13.851562 17.507812 -13.082031 18 -12.15625 C 18.488281 -11.226562 18.78125 -10.175781 18.875 -9 C 18.976562 -7.832031 18.890625 -6.570312 18.609375 -5.21875 Z M 5.9375 -7.90625 C 5.675781 -6.6875 5.53125 -5.578125 5.5 -4.578125 C 5.476562 -3.585938 5.597656 -2.722656 5.859375 -1.984375 C 6.128906 -1.242188 6.546875 -0.628906 7.109375 -0.140625 C 7.671875 0.335938 8.40625 0.671875 9.3125 0.859375 C 10.21875 1.054688 11.019531 1.046875 11.71875 0.828125 C 12.425781 0.609375 13.046875 0.210938 13.578125 -0.359375 C 14.109375 -0.929688 14.5625 -1.671875 14.9375 -2.578125 C 15.320312 -3.492188 15.644531 -4.5625 15.90625 -5.78125 C 16.15625 -6.976562 16.289062 -8.070312 16.3125 -9.0625 C 16.34375 -10.0625 16.226562 -10.925781 15.96875 -11.65625 C 15.71875 -12.394531 15.316406 -13 14.765625 -13.46875 C 14.210938 -13.945312 13.484375 -14.285156 12.578125 -14.484375 C 11.671875 -14.671875 10.863281 -14.660156 10.15625 -14.453125 C 9.445312 -14.242188 8.816406 -13.851562 8.265625 -13.28125 C 7.722656 -12.71875 7.257812 -11.976562 6.875 -11.0625 C 6.5 -10.15625 6.1875 -9.101562 5.9375 -7.90625 Z M 5.9375 -7.90625 "/></g></g></g><g fill="#daa545" fill-opacity="1"><g transform="translate(214.605892, 105.455592)"><g><path d="M 13.125 5.453125 L 10 -11.453125 L 5.5625 -0.765625 C 5.414062 -0.410156 5.347656 -0.101562 5.359375 0.15625 C 5.367188 0.425781 5.429688 0.648438 5.546875 0.828125 C 5.671875 1.015625 5.84375 1.175781 6.0625 1.3125 C 6.28125 1.445312 6.515625 1.566406 6.765625 1.671875 L 7.09375 1.8125 L 6.6875 2.78125 L 0.875 0.359375 L 1.28125 -0.609375 L 1.578125 -0.484375 C 1.847656 -0.367188 2.101562 -0.28125 2.34375 -0.21875 C 2.582031 -0.164062 2.8125 -0.160156 3.03125 -0.203125 C 3.25 -0.242188 3.457031 -0.351562 3.65625 -0.53125 C 3.851562 -0.71875 4.023438 -0.988281 4.171875 -1.34375 L 8.859375 -12.65625 C 9.003906 -13 9.066406 -13.296875 9.046875 -13.546875 C 9.023438 -13.804688 8.953125 -14.023438 8.828125 -14.203125 C 8.703125 -14.390625 8.53125 -14.546875 8.3125 -14.671875 C 8.101562 -14.804688 7.867188 -14.925781 7.609375 -15.03125 L 7.3125 -15.15625 L 7.71875 -16.125 L 11.953125 -14.359375 L 14.921875 1.828125 L 19.15625 -8.390625 C 19.300781 -8.734375 19.363281 -9.03125 19.34375 -9.28125 C 19.332031 -9.53125 19.265625 -9.742188 19.140625 -9.921875 C 19.015625 -10.097656 18.84375 -10.253906 18.625 -10.390625 C 18.40625 -10.523438 18.164062 -10.644531 17.90625 -10.75 L 17.609375 -10.875 L 18.015625 -11.84375 L 23.8125 -9.4375 L 23.40625 -8.46875 L 23.109375 -8.59375 C 22.847656 -8.695312 22.59375 -8.773438 22.34375 -8.828125 C 22.09375 -8.890625 21.859375 -8.894531 21.640625 -8.84375 C 21.429688 -8.800781 21.234375 -8.691406 21.046875 -8.515625 C 20.859375 -8.347656 20.6875 -8.082031 20.53125 -7.71875 L 14.78125 6.140625 Z M 13.125 5.453125 "/></g></g></g><g fill="#daa545" fill-opacity="1"><g transform="translate(230.949483, 112.27187)"><g><path d="M 3.375 2.125 L 3.9375 1.234375 L 4.40625 1.546875 C 4.644531 1.691406 4.878906 1.816406 5.109375 1.921875 C 5.335938 2.023438 5.5625 2.078125 5.78125 2.078125 C 6 2.085938 6.210938 2.023438 6.421875 1.890625 C 6.640625 1.765625 6.847656 1.546875 7.046875 1.234375 L 9.578125 -2.765625 L 9.953125 -12.03125 C 9.953125 -12.300781 9.941406 -12.535156 9.921875 -12.734375 C 9.910156 -12.941406 9.878906 -13.128906 9.828125 -13.296875 C 9.773438 -13.460938 9.691406 -13.609375 9.578125 -13.734375 C 9.460938 -13.859375 9.316406 -13.976562 9.140625 -14.09375 L 8.859375 -14.265625 L 9.421875 -15.140625 L 15.234375 -11.46875 L 14.671875 -10.59375 L 13.890625 -11.09375 C 13.703125 -11.207031 13.535156 -11.285156 13.390625 -11.328125 C 13.242188 -11.367188 13.117188 -11.378906 13.015625 -11.359375 C 12.910156 -11.335938 12.816406 -11.296875 12.734375 -11.234375 C 12.660156 -11.171875 12.59375 -11.097656 12.53125 -11.015625 C 12.40625 -10.816406 12.320312 -10.585938 12.28125 -10.328125 C 12.25 -10.066406 12.226562 -9.835938 12.21875 -9.640625 L 11.984375 -5.828125 C 11.953125 -5.234375 11.890625 -4.671875 11.796875 -4.140625 C 11.703125 -3.609375 11.613281 -3.140625 11.53125 -2.734375 C 11.6875 -2.835938 11.867188 -2.957031 12.078125 -3.09375 C 12.296875 -3.226562 12.523438 -3.363281 12.765625 -3.5 C 13.015625 -3.632812 13.269531 -3.773438 13.53125 -3.921875 C 13.789062 -4.066406 14.050781 -4.207031 14.3125 -4.34375 L 17.203125 -5.921875 C 17.492188 -6.066406 17.734375 -6.226562 17.921875 -6.40625 C 18.117188 -6.59375 18.273438 -6.769531 18.390625 -6.9375 C 18.585938 -7.25 18.625 -7.550781 18.5 -7.84375 C 18.375 -8.144531 18.109375 -8.425781 17.703125 -8.6875 L 17.078125 -9.078125 L 17.640625 -9.953125 L 22.796875 -6.6875 L 22.234375 -5.8125 L 21.984375 -5.96875 C 21.835938 -6.0625 21.679688 -6.125 21.515625 -6.15625 C 21.347656 -6.1875 21.15625 -6.179688 20.9375 -6.140625 C 20.726562 -6.097656 20.476562 -6.019531 20.1875 -5.90625 C 19.90625 -5.789062 19.578125 -5.632812 19.203125 -5.4375 L 11.703125 -1.421875 L 9.234375 2.46875 C 9.023438 2.789062 8.898438 3.082031 8.859375 3.34375 C 8.828125 3.601562 8.859375 3.835938 8.953125 4.046875 C 9.046875 4.265625 9.1875 4.453125 9.375 4.609375 C 9.5625 4.773438 9.769531 4.929688 10 5.078125 L 10.5 5.390625 L 9.9375 6.28125 Z M 3.375 2.125 "/></g></g></g><g clip-path="url(#4d9104916a)"><path fill="#daa545" d="M 187.492188 119.75 C 227.417969 119.75 259.785156 152.117188 259.785156 192.042969 C 259.785156 231.96875 227.417969 264.339844 187.492188 264.339844 C 147.566406 264.339844 115.195312 231.96875 115.195312 192.042969 C 115.195312 152.117188 147.566406 119.75 187.492188 119.75 Z M 187.492188 117.046875 C 146.070312 117.046875 112.496094 150.625 112.496094 192.042969 C 112.496094 233.464844 146.070312 267.042969 187.492188 267.042969 C 228.914062 267.042969 262.488281 233.464844 262.488281 192.042969 C 262.488281 150.625 228.914062 117.046875 187.492188 117.046875 Z M 223.4375 158.679688 L 223.4375 190.042969 L 214.597656 184.335938 L 197.882812 194.714844 L 195.070312 196.460938 L 193.425781 197.480469 L 193.425781 149.386719 L 174.429688 161.160156 L 174.429688 181.851562 L 169.972656 178.835938 L 169.972656 158.679688 L 197.882812 141.382812 Z M 125.074219 192.042969 C 125.074219 157.570312 153.019531 129.625 187.492188 129.625 C 221.964844 129.625 249.910156 157.570312 249.910156 192.042969 C 249.910156 207.972656 243.933594 222.503906 234.113281 233.53125 L 234.113281 200.289062 L 214.667969 187.125 L 193.425781 200.289062 L 193.425781 254.175781 C 191.472656 254.359375 189.492188 254.464844 187.492188 254.464844 C 185.488281 254.464844 183.511719 254.359375 181.558594 254.175781 L 181.558594 189.699219 L 162.109375 176.535156 L 140.871094 189.699219 L 140.871094 233.53125 C 131.050781 222.503906 125.074219 207.972656 125.074219 192.042969 Z M 144.261719 191.585938 L 158.71875 182.628906 L 158.71875 247.433594 C 153.40625 244.664062 148.542969 241.160156 144.261719 237.046875 Z M 196.816406 202.179688 L 211.273438 193.222656 L 211.273438 249.761719 C 206.703125 251.644531 201.859375 253.011719 196.816406 253.765625 Z M 118.816406 192.042969 C 118.816406 229.972656 149.5625 260.71875 187.492188 260.71875 C 225.421875 260.71875 256.167969 229.972656 256.167969 192.042969 C 256.167969 154.117188 225.421875 123.367188 187.492188 123.367188 C 149.5625 123.367188 118.816406 154.117188 118.816406 192.042969 " fill-opacity="1" fill-rule="nonzero"/></g><path fill="#daa545" d="M 279.390625 237.320312 C 279.679688 237.472656 279.949219 237.652344 280.203125 237.859375 C 280.457031 238.0625 280.6875 238.289062 280.898438 238.539062 C 281.105469 238.789062 281.289062 239.058594 281.445312 239.34375 C 281.605469 239.628906 281.730469 239.925781 281.832031 240.234375 C 281.929688 240.546875 282 240.863281 282.039062 241.1875 C 282.074219 241.511719 282.082031 241.835938 282.058594 242.160156 C 282.03125 242.484375 281.976562 242.804688 281.890625 243.117188 C 281.800781 243.433594 281.6875 243.734375 281.539062 244.027344 C 280.378906 246.101562 279.152344 248.136719 277.855469 250.128906 C 276.558594 252.125 275.199219 254.074219 273.773438 255.976562 C 272.347656 257.878906 270.859375 259.734375 269.3125 261.539062 C 267.765625 263.347656 266.160156 265.097656 264.496094 266.796875 C 262.832031 268.496094 261.113281 270.140625 259.339844 271.722656 C 257.566406 273.308594 255.742188 274.835938 253.871094 276.300781 C 251.996094 277.765625 250.078125 279.164062 248.109375 280.503906 C 246.144531 281.839844 244.136719 283.109375 242.085938 284.316406 C 240.035156 285.519531 237.945312 286.65625 235.820312 287.722656 C 233.695312 288.789062 231.535156 289.785156 229.34375 290.707031 C 227.152344 291.628906 224.933594 292.480469 222.683594 293.257812 C 220.4375 294.035156 218.167969 294.734375 215.871094 295.359375 C 213.578125 295.988281 211.265625 296.535156 208.933594 297.007812 C 206.605469 297.484375 204.261719 297.878906 201.902344 298.195312 C 199.546875 298.515625 197.183594 298.753906 194.808594 298.914062 C 192.4375 299.074219 190.0625 299.160156 187.683594 299.164062 C 185.304688 299.167969 182.929688 299.09375 180.554688 298.9375 C 178.183594 298.785156 175.816406 298.554688 173.457031 298.246094 C 171.101562 297.933594 168.753906 297.546875 166.421875 297.082031 C 164.089844 296.617188 161.777344 296.074219 159.480469 295.457031 C 157.183594 294.839844 154.910156 294.144531 152.660156 293.375 C 150.410156 292.609375 148.1875 291.765625 145.992188 290.847656 C 143.796875 289.933594 141.636719 288.945312 139.507812 287.886719 C 137.375 286.828125 135.285156 285.699219 133.230469 284.5 C 131.175781 283.304688 129.164062 282.039062 127.191406 280.710938 C 125.21875 279.378906 123.296875 277.984375 121.417969 276.527344 C 119.539062 275.066406 117.710938 273.546875 115.933594 271.96875 C 114.152344 270.390625 112.429688 268.753906 110.761719 267.058594 C 109.089844 265.367188 107.480469 263.621094 105.925781 261.820312 C 104.371094 260.019531 102.878906 258.171875 101.445312 256.269531 C 100.015625 254.371094 98.648438 252.429688 97.34375 250.4375 C 96.039062 248.449219 94.804688 246.417969 93.636719 244.347656 C 93.488281 244.054688 93.371094 243.753906 93.285156 243.441406 C 93.195312 243.125 93.140625 242.808594 93.113281 242.484375 C 93.085938 242.15625 93.09375 241.832031 93.128906 241.511719 C 93.167969 241.1875 93.234375 240.867188 93.332031 240.558594 C 93.429688 240.246094 93.558594 239.949219 93.714844 239.664062 C 93.871094 239.378906 94.054688 239.109375 94.261719 238.859375 C 94.46875 238.609375 94.699219 238.378906 94.953125 238.175781 C 95.207031 237.96875 95.476562 237.789062 95.761719 237.636719 L 104.761719 233.101562 C 105.054688 232.941406 105.367188 232.8125 105.6875 232.714844 C 106.011719 232.613281 106.339844 232.550781 106.675781 232.515625 C 107.007812 232.484375 107.34375 232.488281 107.679688 232.523438 C 108.015625 232.558594 108.34375 232.625 108.664062 232.726562 C 108.984375 232.828125 109.292969 232.957031 109.589844 233.121094 C 109.882812 233.285156 110.160156 233.472656 110.417969 233.691406 C 110.671875 233.910156 110.90625 234.152344 111.113281 234.414062 C 111.324219 234.679688 111.503906 234.964844 111.652344 235.265625 C 113.574219 238.582031 115.699219 241.757812 118.035156 244.796875 C 120.371094 247.835938 122.894531 250.707031 125.605469 253.414062 C 128.320312 256.121094 131.195312 258.636719 134.238281 260.96875 C 137.28125 263.296875 140.464844 265.417969 143.785156 267.328125 C 147.105469 269.242188 150.539062 270.925781 154.078125 272.386719 C 157.621094 273.851562 161.242188 275.074219 164.945312 276.058594 C 168.648438 277.046875 172.402344 277.785156 176.199219 278.28125 C 180 278.773438 183.816406 279.019531 187.648438 279.011719 C 191.480469 279.003906 195.296875 278.75 199.09375 278.242188 C 202.890625 277.734375 206.640625 276.980469 210.339844 275.984375 C 214.039062 274.984375 217.65625 273.746094 221.195312 272.273438 C 224.730469 270.800781 228.15625 269.101562 231.472656 267.179688 C 234.785156 265.253906 237.960938 263.125 240.996094 260.785156 C 244.03125 258.445312 246.898438 255.917969 249.601562 253.203125 C 252.304688 250.484375 254.820312 247.605469 257.144531 244.558594 C 259.46875 241.511719 261.585938 238.328125 263.492188 235.003906 C 263.644531 234.703125 263.820312 234.417969 264.03125 234.15625 C 264.238281 233.890625 264.46875 233.648438 264.726562 233.429688 C 264.980469 233.210938 265.257812 233.019531 265.550781 232.855469 C 265.84375 232.691406 266.152344 232.558594 266.472656 232.457031 C 266.792969 232.355469 267.121094 232.285156 267.457031 232.25 C 267.792969 232.210938 268.128906 232.210938 268.460938 232.242188 C 268.796875 232.273438 269.128906 232.335938 269.449219 232.433594 C 269.773438 232.53125 270.082031 232.660156 270.378906 232.816406 Z M 279.390625 237.320312 " fill-opacity="1" fill-rule="nonzero"/><g fill="#ffffff" fill-opacity="1"><g transform="translate(100.548524, 241.971425)"><g><path d="M 4.96875 5.9375 C 4.894531 6.09375 4.800781 6.207031 4.6875 6.28125 C 4.539062 6.375 4.375 6.390625 4.1875 6.328125 C 4.007812 6.273438 3.867188 6.164062 3.765625 6 C 3.691406 5.894531 3.648438 5.773438 3.640625 5.640625 C 3.628906 5.515625 3.648438 5.382812 3.703125 5.25 L 4.890625 2.59375 C 5.003906 2.3125 5.054688 2.070312 5.046875 1.875 C 5.046875 1.675781 4.96875 1.453125 4.8125 1.203125 L 4.171875 0.21875 L 1.90625 1.671875 C 1.707031 1.796875 1.507812 1.835938 1.3125 1.796875 C 1.125 1.765625 0.96875 1.65625 0.84375 1.46875 C 0.71875 1.269531 0.675781 1.070312 0.71875 0.875 C 0.757812 0.675781 0.878906 0.515625 1.078125 0.390625 L 6.984375 -3.421875 C 7.179688 -3.546875 7.367188 -3.582031 7.546875 -3.53125 C 7.722656 -3.488281 7.875 -3.375 8 -3.1875 L 9.625 -0.65625 C 10.144531 0.144531 10.359375 0.875 10.265625 1.53125 C 10.179688 2.1875 9.800781 2.726562 9.125 3.15625 C 8.570312 3.519531 8.015625 3.65625 7.453125 3.5625 C 6.898438 3.476562 6.394531 3.179688 5.9375 2.671875 C 6.007812 2.910156 6.035156 3.140625 6.015625 3.359375 C 5.992188 3.585938 5.914062 3.84375 5.78125 4.125 Z M 6.25 1.265625 C 6.5625 1.753906 6.882812 2.050781 7.21875 2.15625 C 7.5625 2.257812 7.921875 2.191406 8.296875 1.953125 C 8.691406 1.703125 8.90625 1.40625 8.9375 1.0625 C 8.96875 0.71875 8.828125 0.300781 8.515625 -0.1875 L 7.421875 -1.890625 L 5.15625 -0.4375 Z M 6.25 1.265625 "/></g></g></g><g fill="#ffffff" fill-opacity="1"><g transform="translate(107.814523, 252.680127)"><g><path d="M 1.0625 1.28125 C 0.914062 1.101562 0.847656 0.921875 0.859375 0.734375 C 0.867188 0.546875 0.960938 0.378906 1.140625 0.234375 L 6.53125 -4.234375 C 6.707031 -4.378906 6.882812 -4.441406 7.0625 -4.421875 C 7.25 -4.398438 7.414062 -4.300781 7.5625 -4.125 L 10.328125 -0.796875 C 10.472656 -0.617188 10.546875 -0.445312 10.546875 -0.28125 C 10.554688 -0.113281 10.488281 0.03125 10.34375 0.15625 C 10.1875 0.28125 10.023438 0.328125 9.859375 0.296875 C 9.691406 0.265625 9.535156 0.160156 9.390625 -0.015625 L 7.109375 -2.765625 L 5.328125 -1.28125 L 7.453125 1.28125 C 7.597656 1.457031 7.671875 1.628906 7.671875 1.796875 C 7.671875 1.960938 7.597656 2.109375 7.453125 2.234375 C 7.304688 2.359375 7.148438 2.40625 6.984375 2.375 C 6.816406 2.34375 6.660156 2.238281 6.515625 2.0625 L 4.390625 -0.5 L 2.484375 1.078125 L 4.765625 3.828125 C 4.910156 4.003906 4.984375 4.175781 4.984375 4.34375 C 4.992188 4.507812 4.914062 4.660156 4.75 4.796875 C 4.601562 4.910156 4.445312 4.953125 4.28125 4.921875 C 4.125 4.890625 3.972656 4.785156 3.828125 4.609375 Z M 1.0625 1.28125 "/></g></g></g><g fill="#ffffff" fill-opacity="1"><g transform="translate(115.454687, 261.522387)"><g><path d="M 6.890625 5.1875 C 6.859375 5.300781 6.804688 5.398438 6.734375 5.484375 C 6.609375 5.609375 6.445312 5.664062 6.25 5.65625 C 6.050781 5.644531 5.882812 5.578125 5.75 5.453125 C 5.65625 5.359375 5.585938 5.25 5.546875 5.125 C 5.515625 5 5.523438 4.859375 5.578125 4.703125 L 6.15625 3.046875 L 3.078125 0.15625 L 1.4375 0.828125 C 1.300781 0.898438 1.164062 0.921875 1.03125 0.890625 C 0.90625 0.867188 0.796875 0.8125 0.703125 0.71875 C 0.566406 0.582031 0.484375 0.414062 0.453125 0.21875 C 0.429688 0.03125 0.484375 -0.125 0.609375 -0.25 C 0.679688 -0.332031 0.769531 -0.394531 0.875 -0.4375 L 8.15625 -3.390625 C 8.3125 -3.453125 8.472656 -3.457031 8.640625 -3.40625 C 8.804688 -3.363281 8.953125 -3.285156 9.078125 -3.171875 C 9.203125 -3.054688 9.285156 -2.921875 9.328125 -2.765625 C 9.378906 -2.609375 9.378906 -2.445312 9.328125 -2.28125 Z M 4.265625 -0.359375 L 6.578125 1.8125 L 7.875 -1.859375 Z M 4.265625 -0.359375 "/></g></g></g><g fill="#ffffff" fill-opacity="1"><g transform="translate(125.549042, 270.497269)"><g><path d="M 1.328125 0.96875 C 1.140625 0.832031 1.03125 0.671875 1 0.484375 C 0.976562 0.304688 1.03125 0.128906 1.15625 -0.046875 L 5.296875 -5.734375 C 5.429688 -5.910156 5.597656 -6.015625 5.796875 -6.046875 C 5.992188 -6.078125 6.1875 -6.019531 6.375 -5.875 C 6.570312 -5.738281 6.679688 -5.570312 6.703125 -5.375 C 6.734375 -5.175781 6.679688 -4.988281 6.546875 -4.8125 L 2.734375 0.4375 L 5.453125 2.421875 C 5.847656 2.703125 5.921875 3.007812 5.671875 3.34375 C 5.421875 3.6875 5.097656 3.71875 4.703125 3.4375 Z M 1.328125 0.96875 "/></g></g></g><g fill="#ffffff" fill-opacity="1"><g transform="translate(134.738548, 276.842327)"><g/></g></g><g fill="#ffffff" fill-opacity="1"><g transform="translate(141.480551, 280.705775)"><g><path d="M 1.5 0.703125 C 1.289062 0.609375 1.148438 0.472656 1.078125 0.296875 C 1.015625 0.117188 1.03125 -0.0703125 1.125 -0.28125 L 4.109375 -6.609375 C 4.210938 -6.816406 4.351562 -6.945312 4.53125 -7 C 4.707031 -7.050781 4.898438 -7.03125 5.109375 -6.9375 L 9.015625 -5.09375 C 9.234375 -4.988281 9.375 -4.863281 9.4375 -4.71875 C 9.507812 -4.570312 9.507812 -4.414062 9.4375 -4.25 C 9.34375 -4.070312 9.21875 -3.957031 9.0625 -3.90625 C 8.90625 -3.863281 8.71875 -3.894531 8.5 -4 L 5.28125 -5.515625 L 4.28125 -3.40625 L 7.296875 -1.984375 C 7.503906 -1.890625 7.640625 -1.765625 7.703125 -1.609375 C 7.773438 -1.460938 7.769531 -1.300781 7.6875 -1.125 C 7.613281 -0.945312 7.492188 -0.835938 7.328125 -0.796875 C 7.171875 -0.765625 6.988281 -0.796875 6.78125 -0.890625 L 3.765625 -2.3125 L 2.703125 -0.078125 L 5.921875 1.4375 C 6.140625 1.539062 6.285156 1.664062 6.359375 1.8125 C 6.429688 1.96875 6.421875 2.140625 6.328125 2.328125 C 6.253906 2.492188 6.132812 2.597656 5.96875 2.640625 C 5.8125 2.679688 5.625 2.648438 5.40625 2.546875 Z M 1.5 0.703125 "/></g></g></g><g fill="#ffffff" fill-opacity="1"><g transform="translate(152.13354, 285.449739)"><g><path d="M 3.609375 1.328125 C 3.023438 1.128906 2.5 0.863281 2.03125 0.53125 C 1.5625 0.195312 1.207031 -0.148438 0.96875 -0.515625 C 0.84375 -0.710938 0.816406 -0.921875 0.890625 -1.140625 C 0.941406 -1.304688 1.035156 -1.429688 1.171875 -1.515625 C 1.304688 -1.597656 1.441406 -1.617188 1.578125 -1.578125 C 1.710938 -1.535156 1.84375 -1.4375 1.96875 -1.28125 C 2.21875 -0.9375 2.503906 -0.648438 2.828125 -0.421875 C 3.160156 -0.191406 3.535156 -0.00390625 3.953125 0.140625 C 4.523438 0.328125 4.988281 0.375 5.34375 0.28125 C 5.695312 0.1875 5.9375 -0.046875 6.0625 -0.421875 C 6.15625 -0.710938 6.085938 -0.984375 5.859375 -1.234375 C 5.640625 -1.484375 5.234375 -1.785156 4.640625 -2.140625 C 4.015625 -2.515625 3.523438 -2.863281 3.171875 -3.1875 C 2.828125 -3.519531 2.597656 -3.867188 2.484375 -4.234375 C 2.367188 -4.597656 2.382812 -5.003906 2.53125 -5.453125 C 2.695312 -5.929688 2.972656 -6.3125 3.359375 -6.59375 C 3.742188 -6.875 4.207031 -7.039062 4.75 -7.09375 C 5.300781 -7.144531 5.875 -7.070312 6.46875 -6.875 C 7.539062 -6.507812 8.328125 -5.925781 8.828125 -5.125 C 8.898438 -5.007812 8.941406 -4.898438 8.953125 -4.796875 C 8.960938 -4.703125 8.953125 -4.597656 8.921875 -4.484375 C 8.859375 -4.316406 8.757812 -4.191406 8.625 -4.109375 C 8.5 -4.023438 8.367188 -4.007812 8.234375 -4.0625 C 8.160156 -4.082031 8.09375 -4.113281 8.03125 -4.15625 C 7.976562 -4.195312 7.90625 -4.269531 7.8125 -4.375 C 7.59375 -4.707031 7.351562 -4.972656 7.09375 -5.171875 C 6.84375 -5.378906 6.503906 -5.554688 6.078125 -5.703125 C 5.554688 -5.878906 5.109375 -5.910156 4.734375 -5.796875 C 4.367188 -5.691406 4.125 -5.453125 4 -5.078125 C 3.894531 -4.773438 3.945312 -4.492188 4.15625 -4.234375 C 4.375 -3.972656 4.773438 -3.664062 5.359375 -3.3125 C 5.972656 -2.9375 6.460938 -2.582031 6.828125 -2.25 C 7.191406 -1.925781 7.4375 -1.582031 7.5625 -1.21875 C 7.6875 -0.851562 7.675781 -0.453125 7.53125 -0.015625 C 7.375 0.453125 7.101562 0.820312 6.71875 1.09375 C 6.34375 1.363281 5.882812 1.519531 5.34375 1.5625 C 4.800781 1.613281 4.222656 1.535156 3.609375 1.328125 Z M 3.609375 1.328125 "/></g></g></g><g fill="#ffffff" fill-opacity="1"><g transform="translate(163.841567, 289.061537)"><g><path d="M 3.59375 0.796875 C 3.363281 0.753906 3.191406 0.644531 3.078125 0.46875 C 2.972656 0.300781 2.941406 0.109375 2.984375 -0.109375 L 4.296875 -6.46875 L 2.15625 -6.90625 C 1.6875 -7 1.492188 -7.253906 1.578125 -7.671875 C 1.660156 -8.078125 1.9375 -8.234375 2.40625 -8.140625 L 8.203125 -6.953125 C 8.671875 -6.847656 8.863281 -6.59375 8.78125 -6.1875 C 8.695312 -5.769531 8.421875 -5.613281 7.953125 -5.71875 L 5.8125 -6.15625 L 4.5 0.203125 C 4.457031 0.421875 4.351562 0.585938 4.1875 0.703125 C 4.019531 0.816406 3.820312 0.847656 3.59375 0.796875 Z M 3.59375 0.796875 "/></g></g></g><g fill="#ffffff" fill-opacity="1"><g transform="translate(175.620566, 291.233071)"><g><path d="M 8.609375 -0.265625 C 8.660156 -0.160156 8.679688 -0.0546875 8.671875 0.046875 C 8.660156 0.222656 8.570312 0.367188 8.40625 0.484375 C 8.25 0.609375 8.082031 0.664062 7.90625 0.65625 C 7.78125 0.644531 7.660156 0.597656 7.546875 0.515625 C 7.441406 0.441406 7.363281 0.332031 7.3125 0.1875 L 6.71875 -1.484375 L 2.515625 -1.796875 L 1.65625 -0.25 C 1.582031 -0.113281 1.488281 -0.015625 1.375 0.046875 C 1.257812 0.109375 1.132812 0.132812 1 0.125 C 0.8125 0.113281 0.644531 0.0351562 0.5 -0.109375 C 0.363281 -0.253906 0.300781 -0.414062 0.3125 -0.59375 C 0.320312 -0.695312 0.351562 -0.796875 0.40625 -0.890625 L 4.234375 -7.734375 C 4.316406 -7.890625 4.4375 -8 4.59375 -8.0625 C 4.757812 -8.132812 4.925781 -8.164062 5.09375 -8.15625 C 5.257812 -8.144531 5.410156 -8.09375 5.546875 -8 C 5.679688 -7.90625 5.78125 -7.773438 5.84375 -7.609375 Z M 3.109375 -2.953125 L 6.28125 -2.703125 L 4.96875 -6.390625 Z M 3.109375 -2.953125 "/></g></g></g><g fill="#ffffff" fill-opacity="1"><g transform="translate(189.123167, 291.924373)"><g><path d="M 3.6875 -0.125 C 3.445312 -0.113281 3.253906 -0.171875 3.109375 -0.296875 C 2.960938 -0.429688 2.882812 -0.613281 2.875 -0.84375 L 2.546875 -7.3125 L 0.359375 -7.203125 C -0.117188 -7.179688 -0.367188 -7.382812 -0.390625 -7.8125 C -0.410156 -8.226562 -0.179688 -8.445312 0.296875 -8.46875 L 6.203125 -8.765625 C 6.679688 -8.785156 6.929688 -8.585938 6.953125 -8.171875 C 6.972656 -7.742188 6.742188 -7.519531 6.265625 -7.5 L 4.09375 -7.390625 L 4.421875 -0.921875 C 4.429688 -0.691406 4.367188 -0.503906 4.234375 -0.359375 C 4.097656 -0.210938 3.914062 -0.132812 3.6875 -0.125 Z M 3.6875 -0.125 "/></g></g></g><g fill="#ffffff" fill-opacity="1"><g transform="translate(201.034459, 291.05418)"><g><path d="M 1.640625 -0.28125 C 1.410156 -0.238281 1.21875 -0.269531 1.0625 -0.375 C 0.90625 -0.488281 0.804688 -0.65625 0.765625 -0.875 L -0.390625 -7.78125 C -0.429688 -8.007812 -0.394531 -8.191406 -0.28125 -8.328125 C -0.164062 -8.472656 0.00390625 -8.566406 0.234375 -8.609375 L 4.5 -9.328125 C 4.726562 -9.359375 4.914062 -9.332031 5.0625 -9.25 C 5.207031 -9.175781 5.296875 -9.046875 5.328125 -8.859375 C 5.359375 -8.660156 5.316406 -8.5 5.203125 -8.375 C 5.097656 -8.25 4.929688 -8.171875 4.703125 -8.140625 L 1.1875 -7.546875 L 1.578125 -5.25 L 4.859375 -5.796875 C 5.085938 -5.835938 5.269531 -5.816406 5.40625 -5.734375 C 5.550781 -5.648438 5.640625 -5.507812 5.671875 -5.3125 C 5.703125 -5.125 5.664062 -4.96875 5.5625 -4.84375 C 5.457031 -4.726562 5.289062 -4.648438 5.0625 -4.609375 L 1.78125 -4.0625 L 2.1875 -1.609375 L 5.703125 -2.203125 C 5.929688 -2.234375 6.113281 -2.207031 6.25 -2.125 C 6.394531 -2.039062 6.488281 -1.894531 6.53125 -1.6875 C 6.5625 -1.507812 6.519531 -1.359375 6.40625 -1.234375 C 6.300781 -1.109375 6.132812 -1.03125 5.90625 -1 Z M 1.640625 -0.28125 "/></g></g></g><g fill="#ffffff" fill-opacity="1"><g transform="translate(212.400236, 288.829551)"><g/></g></g><g fill="#ffffff" fill-opacity="1"><g transform="translate(219.913762, 286.716209)"><g><path d="M 7.671875 -3.9375 C 7.753906 -3.863281 7.816406 -3.773438 7.859375 -3.671875 C 7.921875 -3.515625 7.90625 -3.347656 7.8125 -3.171875 C 7.71875 -2.992188 7.582031 -2.867188 7.40625 -2.796875 C 7.289062 -2.753906 7.164062 -2.742188 7.03125 -2.765625 C 6.894531 -2.785156 6.773438 -2.851562 6.671875 -2.96875 L 5.421875 -4.21875 L 1.484375 -2.703125 L 1.375 -0.921875 C 1.363281 -0.765625 1.320312 -0.632812 1.25 -0.53125 C 1.175781 -0.4375 1.078125 -0.363281 0.953125 -0.3125 C 0.773438 -0.25 0.59375 -0.25 0.40625 -0.3125 C 0.21875 -0.382812 0.09375 -0.5 0.03125 -0.65625 C -0.0078125 -0.757812 -0.0195312 -0.867188 0 -0.984375 L 0.5 -8.828125 C 0.507812 -8.992188 0.570312 -9.144531 0.6875 -9.28125 C 0.800781 -9.414062 0.9375 -9.507812 1.09375 -9.5625 C 1.25 -9.625 1.40625 -9.640625 1.5625 -9.609375 C 1.726562 -9.585938 1.878906 -9.519531 2.015625 -9.40625 Z M 1.546875 -4 L 4.5 -5.140625 L 1.75 -7.90625 Z M 1.546875 -4 "/></g></g></g><g fill="#ffffff" fill-opacity="1"><g transform="translate(232.440556, 281.555082)"><g><path d="M 4.25 -7.546875 C 4.40625 -7.628906 4.554688 -7.648438 4.703125 -7.609375 C 4.859375 -7.578125 4.976562 -7.484375 5.0625 -7.328125 L 6.3125 -5.0625 C 6.488281 -4.738281 6.570312 -4.484375 6.5625 -4.296875 C 6.550781 -4.117188 6.4375 -3.914062 6.21875 -3.6875 C 6 -3.4375 5.71875 -3.179688 5.375 -2.921875 C 5.03125 -2.671875 4.679688 -2.445312 4.328125 -2.25 C 3.578125 -1.84375 2.835938 -1.632812 2.109375 -1.625 C 1.390625 -1.613281 0.722656 -1.8125 0.109375 -2.21875 C -0.503906 -2.625 -1.03125 -3.226562 -1.46875 -4.03125 C -1.894531 -4.800781 -2.113281 -5.554688 -2.125 -6.296875 C -2.144531 -7.035156 -1.960938 -7.707031 -1.578125 -8.3125 C -1.191406 -8.914062 -0.628906 -9.421875 0.109375 -9.828125 C 1.097656 -10.367188 2.050781 -10.546875 2.96875 -10.359375 C 3.09375 -10.335938 3.195312 -10.296875 3.28125 -10.234375 C 3.363281 -10.179688 3.429688 -10.097656 3.484375 -9.984375 C 3.566406 -9.828125 3.597656 -9.671875 3.578125 -9.515625 C 3.554688 -9.367188 3.488281 -9.265625 3.375 -9.203125 C 3.289062 -9.148438 3.207031 -9.117188 3.125 -9.109375 C 3.050781 -9.109375 2.957031 -9.113281 2.84375 -9.125 C 2.40625 -9.175781 2.03125 -9.171875 1.71875 -9.109375 C 1.40625 -9.046875 1.082031 -8.921875 0.75 -8.734375 C -0.0195312 -8.316406 -0.472656 -7.773438 -0.609375 -7.109375 C -0.742188 -6.453125 -0.566406 -5.675781 -0.078125 -4.78125 C 0.921875 -2.945312 2.21875 -2.46875 3.8125 -3.34375 C 4.289062 -3.601562 4.734375 -3.9375 5.140625 -4.34375 L 4.109375 -6.21875 L 2.921875 -5.5625 C 2.742188 -5.46875 2.585938 -5.429688 2.453125 -5.453125 C 2.328125 -5.484375 2.222656 -5.578125 2.140625 -5.734375 C 2.046875 -5.890625 2.019531 -6.035156 2.0625 -6.171875 C 2.101562 -6.316406 2.210938 -6.4375 2.390625 -6.53125 Z M 4.25 -7.546875 "/></g></g></g><g fill="#ffffff" fill-opacity="1"><g transform="translate(244.030197, 274.818757)"><g><path d="M 1.34375 -0.96875 C 1.15625 -0.832031 0.96875 -0.773438 0.78125 -0.796875 C 0.59375 -0.828125 0.429688 -0.9375 0.296875 -1.125 L -3.796875 -6.796875 C -3.929688 -6.984375 -3.976562 -7.164062 -3.9375 -7.34375 C -3.90625 -7.53125 -3.796875 -7.691406 -3.609375 -7.828125 L -0.109375 -10.359375 C 0.0859375 -10.503906 0.269531 -10.566406 0.4375 -10.546875 C 0.601562 -10.535156 0.742188 -10.457031 0.859375 -10.3125 C 0.972656 -10.144531 1.007812 -9.976562 0.96875 -9.8125 C 0.925781 -9.65625 0.804688 -9.503906 0.609375 -9.359375 L -2.265625 -7.28125 L -0.90625 -5.40625 L 1.78125 -7.34375 C 1.96875 -7.476562 2.144531 -7.539062 2.3125 -7.53125 C 2.476562 -7.519531 2.617188 -7.4375 2.734375 -7.28125 C 2.847656 -7.125 2.878906 -6.960938 2.828125 -6.796875 C 2.785156 -6.640625 2.671875 -6.492188 2.484375 -6.359375 L -0.203125 -4.421875 L 1.25 -2.40625 L 4.125 -4.484375 C 4.320312 -4.628906 4.503906 -4.695312 4.671875 -4.6875 C 4.835938 -4.675781 4.984375 -4.585938 5.109375 -4.421875 C 5.210938 -4.265625 5.242188 -4.109375 5.203125 -3.953125 C 5.160156 -3.796875 5.039062 -3.644531 4.84375 -3.5 Z M 1.34375 -0.96875 "/></g></g></g><g fill="#ffffff" fill-opacity="1"><g transform="translate(253.36671, 267.789559)"><g><path d="M -0.46875 -11.21875 C -0.300781 -11.375 -0.117188 -11.441406 0.078125 -11.421875 C 0.273438 -11.410156 0.453125 -11.320312 0.609375 -11.15625 L 5.40625 -6 C 5.5625 -5.832031 5.640625 -5.648438 5.640625 -5.453125 C 5.640625 -5.253906 5.554688 -5.078125 5.390625 -4.921875 C 5.210938 -4.753906 5.007812 -4.695312 4.78125 -4.75 L -2.3125 -5.921875 L 1.234375 -2.125 C 1.390625 -1.957031 1.46875 -1.773438 1.46875 -1.578125 C 1.476562 -1.378906 1.398438 -1.203125 1.234375 -1.046875 C 1.078125 -0.898438 0.898438 -0.835938 0.703125 -0.859375 C 0.503906 -0.878906 0.328125 -0.972656 0.171875 -1.140625 L -4.625 -6.296875 C -4.78125 -6.460938 -4.859375 -6.640625 -4.859375 -6.828125 C -4.859375 -7.023438 -4.769531 -7.203125 -4.59375 -7.359375 C -4.414062 -7.535156 -4.210938 -7.601562 -3.984375 -7.5625 L 3.078125 -6.375 L -0.453125 -10.171875 C -0.609375 -10.335938 -0.6875 -10.519531 -0.6875 -10.71875 C -0.6875 -10.914062 -0.613281 -11.082031 -0.46875 -11.21875 Z M -0.46875 -11.21875 "/></g></g></g><g fill="#ffffff" fill-opacity="1"><g transform="translate(263.084157, 258.280904)"><g><path d="M 3.0625 -3.546875 C 2.539062 -2.921875 1.945312 -2.484375 1.28125 -2.234375 C 0.625 -1.984375 -0.0546875 -1.941406 -0.765625 -2.109375 C -1.484375 -2.273438 -2.179688 -2.632812 -2.859375 -3.1875 C -3.546875 -3.757812 -4.035156 -4.375 -4.328125 -5.03125 C -4.617188 -5.695312 -4.703125 -6.378906 -4.578125 -7.078125 C -4.460938 -7.773438 -4.144531 -8.4375 -3.625 -9.0625 C -3.289062 -9.476562 -2.914062 -9.8125 -2.5 -10.0625 C -2.082031 -10.320312 -1.644531 -10.5 -1.1875 -10.59375 C -1.050781 -10.625 -0.9375 -10.625 -0.84375 -10.59375 C -0.757812 -10.570312 -0.664062 -10.519531 -0.5625 -10.4375 C -0.425781 -10.320312 -0.34375 -10.191406 -0.3125 -10.046875 C -0.28125 -9.898438 -0.3125 -9.773438 -0.40625 -9.671875 C -0.507812 -9.535156 -0.65625 -9.441406 -0.84375 -9.390625 C -1.257812 -9.285156 -1.597656 -9.148438 -1.859375 -8.984375 C -2.128906 -8.816406 -2.378906 -8.597656 -2.609375 -8.328125 C -3.140625 -7.691406 -3.335938 -7.039062 -3.203125 -6.375 C -3.078125 -5.707031 -2.625 -5.050781 -1.84375 -4.40625 C -1.0625 -3.769531 -0.335938 -3.453125 0.328125 -3.453125 C 1.003906 -3.453125 1.609375 -3.769531 2.140625 -4.40625 C 2.359375 -4.675781 2.519531 -4.957031 2.625 -5.25 C 2.726562 -5.539062 2.800781 -5.90625 2.84375 -6.34375 C 2.863281 -6.4375 2.882812 -6.519531 2.90625 -6.59375 C 2.9375 -6.675781 2.976562 -6.753906 3.03125 -6.828125 C 3.125 -6.929688 3.242188 -6.984375 3.390625 -6.984375 C 3.546875 -6.984375 3.691406 -6.925781 3.828125 -6.8125 C 3.921875 -6.738281 3.988281 -6.65625 4.03125 -6.5625 C 4.082031 -6.476562 4.109375 -6.363281 4.109375 -6.21875 C 4.097656 -5.757812 4.003906 -5.300781 3.828125 -4.84375 C 3.648438 -4.394531 3.394531 -3.960938 3.0625 -3.546875 Z M 3.0625 -3.546875 "/></g></g></g><g fill="#ffffff" fill-opacity="1"><g transform="translate(270.954939, 248.258294)"><g><path d="M -3.625 -9.65625 C -3.707031 -9.875 -3.695312 -10.066406 -3.59375 -10.234375 C -3.488281 -10.390625 -3.335938 -10.488281 -3.140625 -10.53125 C -2.941406 -10.582031 -2.765625 -10.5625 -2.609375 -10.46875 C -2.472656 -10.375 -2.375 -10.238281 -2.3125 -10.0625 L -0.984375 -5.984375 L 1.828125 -4.1875 C 2.023438 -4.0625 2.144531 -3.894531 2.1875 -3.6875 C 2.226562 -3.488281 2.191406 -3.296875 2.078125 -3.109375 C 1.953125 -2.910156 1.789062 -2.789062 1.59375 -2.75 C 1.394531 -2.707031 1.195312 -2.75 1 -2.875 L -1.8125 -4.671875 L -6.078125 -4.15625 C -6.265625 -4.125 -6.425781 -4.15625 -6.5625 -4.25 C -6.71875 -4.34375 -6.816406 -4.488281 -6.859375 -4.6875 C -6.898438 -4.882812 -6.875 -5.0625 -6.78125 -5.21875 C -6.664062 -5.382812 -6.492188 -5.484375 -6.265625 -5.515625 L -2.375 -5.953125 Z M -3.625 -9.65625 "/></g></g></g></svg>